#N canvas 60 23 1860 985 10;
#X floatatom 34 -126 3 0 0 0 - - -, f 3;
#X obj 55 -102 bng 20 250 50 0 empty empty empty 17 7 0 10 -262144
-1 -1;
#X obj 70 -122 outlet;
#X floatatom 19 405 3 0 0 0 - - -, f 3;
#X obj 28 430 bng 20 250 50 0 empty empty empty 17 7 0 10 -262144 -1
-1;
#X obj 55 411 outlet;
#X floatatom 14 1132 3 0 0 0 - - -, f 3;
#X obj 23 1154 bng 20 250 50 0 empty empty empty 17 7 0 10 -262144
-1 -1;
#X obj 50 1138 outlet;
#X obj 19 380 ctlin 18 1;
#X obj 14 1107 ctlin 19 1;
#X floatatom 653 125 3 0 0 0 - - -, f 3;
#X obj 673 150 bng 20 250 50 0 empty empty empty 17 7 0 10 -262144
-1 -1;
#X obj 689 131 outlet;
#X floatatom 768 125 3 0 0 0 - - -, f 3;
#X obj 789 149 bng 20 250 50 0 empty empty empty 17 7 0 10 -262144
-1 -1;
#X obj 805 130 outlet;
#X floatatom 885 126 3 0 0 0 - - -, f 3;
#X obj 905 151 bng 20 250 50 0 empty empty empty 17 7 0 10 -262144
-1 -1;
#X obj 921 132 outlet;
#X obj 188 -126 outlet;
#X floatatom 280 -127 3 0 0 0 - - -, f 3;
#X obj 286 -105 bng 20 250 50 0 empty empty empty 17 7 0 10 -262144
-1 -1;
#X obj 316 -121 outlet;
#X floatatom 394 -124 3 0 0 0 - - -, f 3;
#X obj 408 -99 bng 20 250 50 0 empty empty empty 17 7 0 10 -262144
-1 -1;
#X obj 430 -118 outlet;
#X floatatom 514 -128 3 0 0 0 - - -, f 3;
#X obj 542 -105 bng 20 250 50 0 empty empty empty 17 7 0 10 -262144
-1 -1;
#X obj 550 -127 outlet;
#X floatatom 629 -133 3 0 0 0 - - -, f 3;
#X obj 656 -106 bng 20 250 50 0 empty empty empty 17 7 0 10 -262144
-1 -1;
#X obj 662 -131 outlet;
#X floatatom 748 -134 3 0 0 0 - - -, f 3;
#X obj 765 -108 bng 20 250 50 0 empty empty empty 17 7 0 10 -262144
-1 -1;
#X obj 784 -128 outlet;
#X floatatom 859 -132 3 0 0 0 - - -, f 3;
#X obj 873 -112 bng 20 250 50 0 empty empty empty 17 7 0 10 -262144
-1 -1;
#X obj 895 -126 outlet;
#X obj 176 404 outlet;
#X floatatom 275 398 3 0 0 0 - - -, f 3;
#X obj 281 421 bng 20 250 50 0 empty empty empty 17 7 0 10 -262144
-1 -1;
#X obj 311 404 outlet;
#X floatatom 386 401 3 0 0 0 - - -, f 3;
#X obj 405 426 bng 20 250 50 0 empty empty empty 17 7 0 10 -262144
-1 -1;
#X obj 422 407 outlet;
#X floatatom 717 407 3 0 0 0 - - -, f 3;
#X obj 738 432 bng 20 250 50 0 empty empty empty 17 7 0 10 -262144
-1 -1;
#X obj 753 408 outlet;
#X floatatom 838 399 3 0 0 0 - - -, f 3;
#X obj 851 423 bng 20 250 50 0 empty empty empty 17 7 0 10 -262144
-1 -1;
#X obj 874 405 outlet;
#X floatatom 963 396 3 0 0 0 - - -, f 3;
#X obj 982 422 bng 20 250 50 0 empty empty empty 17 7 0 10 -262144
-1 -1;
#X obj 999 402 outlet;
#X floatatom 1087 399 3 0 0 0 - - -, f 3;
#X obj 1101 421 bng 20 250 50 0 empty empty empty 17 7 0 10 -262144
-1 -1;
#X obj 1123 405 outlet;
#X floatatom 139 407 3 0 0 0 - - -, f 3;
#X obj 149 428 bng 20 250 50 0 empty empty empty 17 7 0 10 -262144
-1 -1;
#X floatatom 152 -128 3 0 0 0 - - -, f 3;
#X obj 160 -106 bng 20 250 50 0 empty empty empty 17 7 0 10 -262144
-1 -1;
#X obj 147 1135 outlet;
#X floatatom 204 1130 3 0 0 0 - - -, f 3;
#X obj 211 1150 bng 20 250 50 0 empty empty empty 17 7 0 10 -262144
-1 -1;
#X obj 240 1136 outlet;
#X floatatom 299 1128 3 0 0 0 - - -, f 3;
#X obj 309 1151 bng 20 250 50 0 empty empty empty 17 7 0 10 -262144
-1 -1;
#X obj 335 1134 outlet;
#X floatatom 438 1129 3 0 0 0 - - -, f 3;
#X obj 449 1150 bng 20 250 50 0 empty empty empty 17 7 0 10 -262144
-1 -1;
#X obj 474 1130 outlet;
#X floatatom 539 1122 3 0 0 0 - - -, f 3;
#X obj 549 1144 bng 20 250 50 0 empty empty empty 17 7 0 10 -262144
-1 -1;
#X obj 575 1128 outlet;
#X floatatom 634 1120 3 0 0 0 - - -, f 3;
#X obj 646 1142 bng 20 250 50 0 empty empty empty 17 7 0 10 -262144
-1 -1;
#X obj 670 1126 outlet;
#X floatatom 727 1121 3 0 0 0 - - -, f 3;
#X obj 740 1144 bng 20 250 50 0 empty empty empty 17 7 0 10 -262144
-1 -1;
#X obj 763 1127 outlet;
#X floatatom 111 1128 3 0 0 0 - - -, f 3;
#X obj 120 1149 bng 20 250 50 0 empty empty empty 17 7 0 10 -262144
-1 -1;
#X obj 141 373 ctlin 22 1;
#X obj 111 1104 ctlin 23 1;
#X obj 275 373 ctlin 26 1;
#X obj 204 1105 ctlin 27 1;
#X obj 386 376 ctlin 30 1;
#X obj 299 1103 ctlin 31 1;
#X obj 717 377 ctlin 48 1;
#X obj 438 1099 ctlin 49 1;
#X obj 539 1097 ctlin 53 1;
#X obj 634 1095 ctlin 57 1;
#X obj 727 1096 ctlin 61 1;
#X floatatom 876 1124 3 0 0 0 - - -, f 3;
#X obj 886 1146 bng 20 250 50 0 empty empty empty 17 7 0 10 -262144
-1 -1;
#X obj 912 1130 outlet;
#X obj 876 1099 ctlin 62 1;
#X obj 838 374 ctlin 52 1;
#X obj 963 372 ctlin 56 1;
#X obj 1087 375 ctlin 60 1;
#X obj 14 1182 vsl 15 128 0 127 0 0 empty empty empty 0 -9 0 10 -262144
-1 -1 0 1;
#X obj 111 1179 vsl 15 128 0 127 0 0 empty empty empty 0 -9 0 10 -262144
-1 -1 0 1;
#X obj 204 1179 vsl 15 128 0 127 0 0 empty empty empty 0 -9 0 10 -262144
-1 -1 0 1;
#X obj 299 1178 vsl 15 128 0 127 0 0 empty empty empty 0 -9 0 10 -262144
-1 -1 0 1;
#X obj 438 1178 vsl 15 128 0 127 0 0 empty empty empty 0 -9 0 10 -262144
-1 -1 0 1;
#X obj 539 1170 vsl 15 128 0 127 0 0 empty empty empty 0 -9 0 10 -262144
-1 -1 0 1;
#X obj 634 1169 vsl 15 128 0 127 0 0 empty empty empty 0 -9 0 10 -262144
-1 -1 0 1;
#X obj 727 1170 vsl 15 128 0 127 0 0 empty empty empty 0 -9 0 10 -262144
-1 -1 0 1;
#X obj 876 1177 vsl 15 128 0 127 0 0 empty empty empty 0 -9 0 10 -262144
-1 -1 0 1;
#X text 886 1069 MASTER;
#X floatatom 5 999 3 0 0 0 - - -, f 3;
#X floatatom 63 1001 3 0 0 0 - - -, f 3;
#X obj 6 975 notein 1 3;
#X floatatom 1186 426 3 0 0 0 - - -, f 3;
#X floatatom 1253 428 3 0 0 0 - - -, f 3;
#X floatatom 101 944 3 0 0 0 - - -, f 3;
#X floatatom 158 944 3 0 0 0 - - -, f 3;
#X floatatom 103 1002 3 0 0 0 - - -, f 3;
#X floatatom 160 1002 3 0 0 0 - - -, f 3;
#X floatatom 197 943 3 0 0 0 - - -, f 3;
#X obj 197 919 notein 1 1;
#X floatatom 254 943 3 0 0 0 - - -, f 3;
#X floatatom 199 1001 3 0 0 0 - - -, f 3;
#X floatatom 256 1001 3 0 0 0 - - -, f 3;
#X obj 199 975 notein 1 3;
#X floatatom 297 941 3 0 0 0 - - -, f 3;
#X obj 297 917 notein 1 1;
#X floatatom 354 941 3 0 0 0 - - -, f 3;
#X floatatom 299 999 3 0 0 0 - - -, f 3;
#X floatatom 356 999 3 0 0 0 - - -, f 3;
#X obj 299 973 notein 1 3;
#X floatatom 409 941 3 0 0 0 - - -, f 3;
#X obj 409 917 notein 1 1;
#X floatatom 466 941 3 0 0 0 - - -, f 3;
#X floatatom 411 999 3 0 0 0 - - -, f 3;
#X floatatom 468 999 3 0 0 0 - - -, f 3;
#X obj 411 973 notein 1 3;
#X floatatom 506 942 3 0 0 0 - - -, f 3;
#X obj 506 918 notein 1 1;
#X floatatom 563 942 3 0 0 0 - - -, f 3;
#X floatatom 508 1000 3 0 0 0 - - -, f 3;
#X floatatom 565 1000 3 0 0 0 - - -, f 3;
#X obj 508 974 notein 1 3;
#X floatatom 602 941 3 0 0 0 - - -, f 3;
#X obj 602 917 notein 1 1;
#X floatatom 659 941 3 0 0 0 - - -, f 3;
#X floatatom 604 999 3 0 0 0 - - -, f 3;
#X floatatom 661 999 3 0 0 0 - - -, f 3;
#X obj 604 973 notein 1 3;
#X floatatom 702 939 3 0 0 0 - - -, f 3;
#X obj 702 915 notein 1 1;
#X floatatom 759 939 3 0 0 0 - - -, f 3;
#X floatatom 704 997 3 0 0 0 - - -, f 3;
#X floatatom 761 997 3 0 0 0 - - -, f 3;
#X obj 704 971 notein 1 3;
#X obj 1190 403 notein 1 27;
#X floatatom 1000 158 3 0 0 0 - - -, f 3;
#X floatatom 1063 157 3 0 0 0 - - -, f 3;
#X obj 1000 132 notein 1 26;
#X obj 101 920 notein 1 4;
#X obj 103 976 notein 1 6;
#X floatatom 20 513 5 0 0 0 - - -, f 5;
#X floatatom 139 510 5 0 0 0 - - -, f 5;
#X floatatom 275 508 5 0 0 0 - - -, f 5;
#X floatatom 386 511 5 0 0 0 - - -, f 5;
#X floatatom 839 512 5 0 0 0 - - -, f 5;
#X floatatom 964 507 5 0 0 0 - - -, f 5;
#X floatatom 1087 507 5 0 0 0 - - -, f 5;
#X floatatom 34 -33 5 0 0 0 - - -, f 5;
#X floatatom 152 -30 5 0 0 0 - - -, f 5;
#X floatatom 279 -32 5 0 0 0 - - -, f 5;
#X floatatom 394 -32 5 0 0 0 - - -, f 5;
#X floatatom 514 -14 5 0 0 0 - - -, f 5;
#X floatatom 629 -10 5 0 0 0 - - -, f 5;
#X floatatom 748 -13 5 0 0 0 - - -, f 5;
#X floatatom 653 213 5 0 0 0 - - -, f 5;
#X floatatom 769 213 5 0 0 0 - - -, f 5;
#X floatatom 885 212 5 0 0 0 - - -, f 5;
#X floatatom 858 -14 5 0 0 0 - - -, f 5;
#X floatatom 885 257 5 0 0 0 - - -, f 5;
#X floatatom 769 254 5 0 0 0 - - -, f 5;
#X floatatom 653 255 5 0 0 0 - - -, f 5;
#X obj 653 100 ctlin 51 1;
#X obj 769 101 ctlin 55 1;
#X obj 885 99 ctlin 59 1;
#X obj 859 -156 ctlin 58 1;
#X obj 748 -157 ctlin 54 1;
#X obj 629 -156 ctlin 50 1;
#X obj 514 -156 ctlin 46 1;
#X obj 394 -149 ctlin 28 1;
#X obj 280 -152 ctlin 24 1;
#X obj 152 -157 ctlin 20 1;
#X obj 34 -153 ctlin 16 1;
#X floatatom 1088 555 5 0 0 0 - - -, f 5;
#X floatatom 964 551 5 0 0 0 - - -, f 5;
#X floatatom 839 554 5 0 0 0 - - -, f 5;
#X obj 1088 532 * 0.82;
#X obj 964 530 * 0.81;
#X obj 839 534 * 0.625;
#X floatatom 386 558 5 0 0 0 - - -, f 5;
#X floatatom 275 555 5 0 0 0 - - -, f 5;
#X floatatom 139 553 5 0 0 0 - - -, f 5;
#X floatatom 19 553 5 0 0 0 - - -, f 5;
#X obj 139 533 * 0.37;
#X obj 18 533 * 0.365;
#X floatatom 859 33 5 0 0 0 - - -, f 5;
#X floatatom 748 30 5 0 0 0 - - -, f 5;
#X floatatom 629 31 5 0 0 0 - - -, f 5;
#X floatatom 514 30 5 0 0 0 - - -, f 5;
#X obj 629 11 * 8.5;
#X obj 513 10 * 8.49;
#X obj 748 10 * 7.9;
#X obj 859 10 * 8;
#X floatatom 394 12 5 0 0 0 - - -, f 5;
#X floatatom 279 8 5 0 0 0 - - -, f 5;
#X floatatom 150 11 5 0 0 0 - - -, f 5;
#X floatatom 34 6 5 0 0 0 - - -, f 5;
#X obj 394 -10 * 8.36;
#X text 1193 373 BANK RIGHT;
#X text 1003 103 BANK LEFT;
#X obj 33 -14 * 100.24;
#X obj 150 -9 * 80.25;
#X obj 279 -12 * 80.35;
#X floatatom 36 126 3 0 0 0 - - -, f 3;
#X obj 45 151 bng 20 250 50 0 empty empty empty 17 7 0 10 -262144 -1
-1;
#X obj 72 132 outlet;
#X obj 193 125 outlet;
#X floatatom 287 122 3 0 0 0 - - -, f 3;
#X obj 293 145 bng 20 250 50 0 empty empty empty 17 7 0 10 -262144
-1 -1;
#X obj 323 128 outlet;
#X floatatom 410 121 3 0 0 0 - - -, f 3;
#X obj 428 146 bng 20 250 50 0 empty empty empty 17 7 0 10 -262144
-1 -1;
#X obj 445 127 outlet;
#X floatatom 156 128 3 0 0 0 - - -, f 3;
#X obj 166 149 bng 20 250 50 0 empty empty empty 17 7 0 10 -262144
-1 -1;
#X floatatom 37 214 5 0 0 0 - - -, f 5;
#X floatatom 156 211 5 0 0 0 - - -, f 5;
#X floatatom 287 212 5 0 0 0 - - -, f 5;
#X floatatom 410 211 5 0 0 0 - - -, f 5;
#X floatatom 410 258 5 0 0 0 - - -, f 5;
#X floatatom 287 259 5 0 0 0 - - -, f 5;
#X floatatom 156 254 5 0 0 0 - - -, f 5;
#X floatatom 36 254 5 0 0 0 - - -, f 5;
#X obj 287 238 * 0.48;
#X obj 156 234 * 0.37;
#X obj 35 234 * 0.365;
#X obj 36 101 ctlin 17 1;
#X obj 158 94 ctlin 21 1;
#X obj 287 97 ctlin 25 1;
#X obj 409 96 ctlin 29 1;
#X floatatom 534 120 3 0 0 0 - - -, f 3;
#X obj 553 145 bng 20 250 50 0 empty empty empty 17 7 0 10 -262144
-1 -1;
#X obj 570 126 outlet;
#X floatatom 534 210 5 0 0 0 - - -, f 5;
#X floatatom 534 257 5 0 0 0 - - -, f 5;
#X obj 534 95 ctlin 47 1;
#X obj 405 1149 dac~;
#X obj 998 790 freeverb~;
#X msg 1562 174 roomsize \$1;
#X msg 1563 245 damping \$1;
#X msg 1563 311 width \$1;
#X msg 1563 376 wet \$1;
#X msg 1560 440 dry \$1;
#X msg 1563 464 print;
#X msg 1567 507 freeze \$1;
#X msg 1569 552 bypass \$1;
#X obj 1569 530 tgl 15 0 empty empty empty 0 -6 0 8 -262144 -1 -1 0
1;
#X obj 1567 484 tgl 15 0 empty empty empty 0 -6 0 8 -262144 -1 -1 0
1;
#X obj 1564 397 hsl 60 18 0 1 0 1 empty empty dry 2 9 1 12 -225271
-1 -1 1858 0;
#X obj 1566 332 hsl 60 18 0 1 0 1 empty empty wet 2 9 1 12 -225271
-1 -1 4135 0;
#X obj 1566 287 hsl 60 18 0 1 0 1 empty empty width 2 9 1 12 -262131
-1 -1 3438 0;
#X obj 1566 202 hsl 60 18 0 2 0 1 empty empty damping 2 9 1 12 -261689
-1 -1 0 0;
#X obj 1566 131 hsl 60 18 0.11 1.1 0 1 empty empty roomsize 2 9 1 12
-261689 -1 -1 2301 0;
#X floatatom 1574 154 3 0 0 0 - - -, f 3;
#X floatatom 1570 224 3 0 0 0 - - -, f 3;
#X floatatom 1567 266 3 0 0 0 - - -, f 3;
#X floatatom 1566 355 3 0 0 0 - - -, f 3;
#X floatatom 1564 419 3 0 0 0 - - -, f 3;
#X obj 386 535 / 127;
#X obj 275 534 / 127;
#X obj 885 234 / 127;
#X obj 769 233 / 127;
#X obj 653 235 / 127;
#X obj 534 234 / 127;
#X obj 409 235 / 127;
#X msg 207 795 stop;
#X obj 170 872 bng 15 250 50 0 empty empty empty 17 7 0 10 -262144
-1 -1;
#X obj 0 396 vsl 15 128 0 127 0 0 empty empty empty 0 -9 0 10 -262144
-1 -1 0 1;
#X obj 113 407 vsl 15 128 0 127 0 0 empty empty empty 0 -9 0 10 -262144
-1 -1 0 1;
#X obj 244 409 vsl 15 128 0 127 0 0 empty empty empty 0 -9 0 10 -262144
-1 -1 0 1;
#X obj 366 409 vsl 15 128 0 127 0 0 empty empty empty 0 -9 0 10 -262144
-1 -1 0 1;
#X obj 691 414 vsl 15 128 0 127 0 0 empty empty empty 0 -9 0 10 -262144
-1 -1 0 1;
#X obj 815 414 vsl 15 128 0 127 0 0 empty empty empty 0 -9 0 10 -262144
-1 -1 0 1;
#X obj 939 412 vsl 15 128 0 127 0 0 empty empty empty 0 -9 0 10 -262144
-1 -1 0 1;
#X obj 1060 413 vsl 15 128 0 127 0 0 empty empty empty 0 -9 0 10 -262144
-1 -1 0 1;
#X obj 11 128 vsl 15 128 0 127 0 0 empty empty empty 0 -9 0 10 -262144
-1 -1 0 1;
#X obj 133 130 vsl 15 128 0 127 0 0 empty empty empty 0 -9 0 10 -262144
-1 -1 0 1;
#X obj 264 129 vsl 15 128 0 127 0 0 empty empty empty 0 -9 0 10 -262144
-1 -1 0 1;
#X obj 386 127 vsl 15 128 0 127 0 0 empty empty empty 0 -9 0 10 -262144
-1 -1 0 1;
#X obj 504 126 vsl 15 128 0 127 0 0 empty empty empty 0 -9 0 10 -262144
-1 -1 0 1;
#X obj 634 124 vsl 15 128 0 127 0 0 empty empty empty 0 -9 0 10 -262144
-1 -1 0 1;
#X obj 746 128 vsl 15 128 0 127 0 0 empty empty empty 0 -9 0 10 -262144
-1 -1 0 1;
#X obj 863 127 vsl 15 128 0 127 0 0 empty empty empty 0 -9 0 10 -262144
-1 -1 0 1;
#X obj 13 -139 vsl 15 128 0 127 0 0 empty empty empty 0 -9 0 10 -262144
-1 -1 0 1;
#X obj 129 -128 vsl 15 128 0 127 0 0 empty empty empty 0 -9 0 10 -262144
-1 -1 0 1;
#X obj 256 -124 vsl 15 128 0 127 0 0 empty empty empty 0 -9 0 10 -262144
-1 -1 0 1;
#X obj 375 -130 vsl 15 128 0 127 0 0 empty empty empty 0 -9 0 10 -262144
-1 -1 0 1;
#X obj 491 -122 vsl 15 128 0 127 0 0 empty empty empty 0 -9 0 10 -262144
-1 -1 0 1;
#X obj 609 -125 vsl 15 128 0 127 0 0 empty empty empty 0 -9 0 10 -262144
-1 -1 0 1;
#X obj 726 -124 vsl 15 128 0 127 0 0 empty empty empty 0 -9 0 10 -262144
-1 -1 0 1;
#X obj 836 -126 vsl 15 128 0 127 0 0 empty empty empty 0 -9 0 10 -262144
-1 -1 0 1;
#X msg 779 814 stop;
#X msg 729 815 start;
#X floatatom 935 1245 5 0 0 0 - - -, f 5;
#X floatatom 936 1284 5 0 0 0 - - -, f 5;
#X obj 935 1264 * 15.8;
#X obj 768 871 writesf~;
#X obj 183 682 dac~;
#X msg 178 637 stop;
#X obj 294 658 readsf~ 1;
#X obj 306 681 dac~;
#X msg 300 637 stop;
#X obj 409 658 readsf~ 1;
#X obj 421 682 dac~;
#X msg 413 635 stop;
#X msg 48 620 stop;
#X obj 83 651 readsf~ 1;
#X obj 96 673 dac~;
#X obj 712 660 readsf~ 1;
#X obj 724 684 dac~;
#X msg 716 637 stop;
#X obj 828 659 readsf~ 1;
#X obj 840 683 dac~;
#X msg 832 636 stop;
#X obj 967 658 readsf~ 1;
#X obj 979 682 dac~;
#X msg 971 635 stop;
#X obj 1084 657 readsf~ 1;
#X obj 1096 681 dac~;
#X msg 1088 634 stop;
#X msg 85 583 open BSE.wav \, 1;
#X msg 171 615 open GMV.wav \, 1;
#X msg 286 614 open BUHO.wav \, 1;
#X obj 174 656 readsf~ 1;
#X obj 72 803 readsf~ 1;
#X obj 84 827 dac~;
#X msg 76 780 stop;
#X msg 399 613 open VINILO.wav \, 1;
#X msg 702 615 open HABLA.wav \, 1;
#X msg 957 613 open 1.wav \, 1;
#X msg 1074 612 open 2.wav \, 1;
#X msg 818 613 open .wav \, 1;
#X msg 62 758 open BSE2.wav \, 1;
#X msg 768 793 open midi5.wav \, 1;
#X connect 0 0 1 0;
#X connect 0 0 304 0;
#X connect 3 0 4 0;
#X connect 3 0 288 0;
#X connect 4 0 341 0;
#X connect 4 0 353 0;
#X connect 6 0 7 0;
#X connect 6 0 101 0;
#X connect 7 0 347 0;
#X connect 9 0 3 0;
#X connect 9 0 5 0;
#X connect 10 0 6 0;
#X connect 10 0 8 0;
#X connect 11 0 12 0;
#X connect 11 0 301 0;
#X connect 14 0 15 0;
#X connect 14 0 302 0;
#X connect 17 0 18 0;
#X connect 17 0 303 0;
#X connect 21 0 22 0;
#X connect 21 0 306 0;
#X connect 24 0 25 0;
#X connect 24 0 307 0;
#X connect 27 0 28 0;
#X connect 27 0 308 0;
#X connect 30 0 31 0;
#X connect 30 0 309 0;
#X connect 33 0 34 0;
#X connect 33 0 310 0;
#X connect 36 0 37 0;
#X connect 36 0 311 0;
#X connect 40 0 41 0;
#X connect 40 0 290 0;
#X connect 41 0 343 0;
#X connect 43 0 44 0;
#X connect 43 0 291 0;
#X connect 44 0 348 0;
#X connect 46 0 47 0;
#X connect 46 0 292 0;
#X connect 47 0 349 0;
#X connect 49 0 50 0;
#X connect 49 0 293 0;
#X connect 50 0 352 0;
#X connect 52 0 53 0;
#X connect 52 0 294 0;
#X connect 53 0 350 0;
#X connect 55 0 56 0;
#X connect 55 0 295 0;
#X connect 56 0 351 0;
#X connect 58 0 59 0;
#X connect 58 0 289 0;
#X connect 59 0 342 0;
#X connect 60 0 61 0;
#X connect 60 0 305 0;
#X connect 63 0 64 0;
#X connect 63 0 103 0;
#X connect 64 0 322 0;
#X connect 66 0 67 0;
#X connect 66 0 104 0;
#X connect 67 0 325 0;
#X connect 69 0 70 0;
#X connect 69 0 105 0;
#X connect 70 0 331 0;
#X connect 72 0 73 0;
#X connect 72 0 106 0;
#X connect 73 0 334 0;
#X connect 75 0 76 0;
#X connect 75 0 107 0;
#X connect 76 0 337 0;
#X connect 78 0 79 0;
#X connect 78 0 108 0;
#X connect 79 0 340 0;
#X connect 81 0 82 0;
#X connect 81 0 102 0;
#X connect 82 0 319 0;
#X connect 83 0 39 0;
#X connect 83 0 58 0;
#X connect 84 0 62 0;
#X connect 84 0 81 0;
#X connect 85 0 40 0;
#X connect 85 0 42 0;
#X connect 86 0 63 0;
#X connect 86 0 65 0;
#X connect 87 0 43 0;
#X connect 87 0 45 0;
#X connect 88 0 66 0;
#X connect 88 0 68 0;
#X connect 89 0 46 0;
#X connect 89 0 48 0;
#X connect 90 0 69 0;
#X connect 90 0 71 0;
#X connect 91 0 72 0;
#X connect 91 0 74 0;
#X connect 92 0 75 0;
#X connect 92 0 77 0;
#X connect 93 0 78 0;
#X connect 93 0 80 0;
#X connect 94 0 95 0;
#X connect 94 0 109 0;
#X connect 97 0 94 0;
#X connect 97 0 96 0;
#X connect 98 0 49 0;
#X connect 98 0 51 0;
#X connect 99 0 52 0;
#X connect 99 0 54 0;
#X connect 100 0 55 0;
#X connect 100 0 57 0;
#X connect 109 0 314 0;
#X connect 113 0 111 0;
#X connect 113 1 112 0;
#X connect 119 0 287 0;
#X connect 121 0 120 0;
#X connect 121 1 122 0;
#X connect 125 0 123 0;
#X connect 125 1 124 0;
#X connect 127 0 126 0;
#X connect 127 1 128 0;
#X connect 131 0 129 0;
#X connect 131 1 130 0;
#X connect 133 0 132 0;
#X connect 133 1 134 0;
#X connect 137 0 135 0;
#X connect 137 1 136 0;
#X connect 139 0 138 0;
#X connect 139 1 140 0;
#X connect 143 0 141 0;
#X connect 143 1 142 0;
#X connect 145 0 144 0;
#X connect 145 1 146 0;
#X connect 149 0 147 0;
#X connect 149 1 148 0;
#X connect 151 0 150 0;
#X connect 151 1 152 0;
#X connect 155 0 153 0;
#X connect 155 1 154 0;
#X connect 156 0 114 0;
#X connect 156 1 115 0;
#X connect 159 0 157 0;
#X connect 159 1 158 0;
#X connect 160 0 116 0;
#X connect 160 1 117 0;
#X connect 161 0 118 0;
#X connect 161 1 119 0;
#X connect 162 0 205 0;
#X connect 163 0 204 0;
#X connect 164 0 280 0;
#X connect 165 0 279 0;
#X connect 166 0 199 0;
#X connect 167 0 198 0;
#X connect 168 0 197 0;
#X connect 169 0 221 0;
#X connect 170 0 222 0;
#X connect 171 0 223 0;
#X connect 172 0 218 0;
#X connect 173 0 211 0;
#X connect 174 0 210 0;
#X connect 175 0 212 0;
#X connect 176 0 283 0;
#X connect 177 0 282 0;
#X connect 178 0 281 0;
#X connect 179 0 213 0;
#X connect 180 0 273 0;
#X connect 181 0 272 0;
#X connect 182 0 271 0;
#X connect 183 0 11 0;
#X connect 183 0 13 0;
#X connect 184 0 14 0;
#X connect 184 0 16 0;
#X connect 185 0 17 0;
#X connect 185 0 19 0;
#X connect 186 0 36 0;
#X connect 186 0 38 0;
#X connect 187 0 33 0;
#X connect 187 0 35 0;
#X connect 188 0 30 0;
#X connect 188 0 32 0;
#X connect 189 0 27 0;
#X connect 189 0 29 0;
#X connect 190 0 24 0;
#X connect 190 0 26 0;
#X connect 191 0 21 0;
#X connect 191 0 23 0;
#X connect 192 0 20 0;
#X connect 192 0 60 0;
#X connect 193 0 0 0;
#X connect 193 0 2 0;
#X connect 197 0 194 0;
#X connect 198 0 195 0;
#X connect 199 0 196 0;
#X connect 204 0 202 0;
#X connect 205 0 203 0;
#X connect 210 0 208 0;
#X connect 211 0 209 0;
#X connect 212 0 207 0;
#X connect 213 0 206 0;
#X connect 218 0 214 0;
#X connect 221 0 217 0;
#X connect 222 0 216 0;
#X connect 223 0 215 0;
#X connect 224 0 225 0;
#X connect 224 0 296 0;
#X connect 225 0 326 0;
#X connect 228 0 229 0;
#X connect 228 0 298 0;
#X connect 231 0 232 0;
#X connect 231 0 299 0;
#X connect 234 0 235 0;
#X connect 234 0 297 0;
#X connect 236 0 246 0;
#X connect 237 0 245 0;
#X connect 238 0 244 0;
#X connect 239 0 285 0;
#X connect 240 0 269 0;
#X connect 244 0 241 0;
#X connect 245 0 242 0;
#X connect 246 0 243 0;
#X connect 247 0 224 0;
#X connect 247 0 226 0;
#X connect 248 0 227 0;
#X connect 248 0 234 0;
#X connect 249 0 228 0;
#X connect 249 0 230 0;
#X connect 250 0 231 0;
#X connect 250 0 233 0;
#X connect 251 0 252 0;
#X connect 251 0 300 0;
#X connect 254 0 284 0;
#X connect 255 0 270 0;
#X connect 256 0 251 0;
#X connect 256 0 253 0;
#X connect 258 0 317 0;
#X connect 258 0 318 0;
#X connect 258 1 318 1;
#X connect 259 0 258 0;
#X connect 260 0 258 0;
#X connect 261 0 258 0;
#X connect 262 0 258 0;
#X connect 263 0 258 0;
#X connect 264 0 258 0;
#X connect 265 0 258 0;
#X connect 266 0 258 0;
#X connect 267 0 266 0;
#X connect 268 0 265 0;
#X connect 269 0 263 0;
#X connect 269 0 278 0;
#X connect 270 0 262 0;
#X connect 270 0 277 0;
#X connect 271 0 261 0;
#X connect 271 0 276 0;
#X connect 272 0 260 0;
#X connect 272 0 275 0;
#X connect 273 0 259 0;
#X connect 273 0 274 0;
#X connect 279 0 200 0;
#X connect 280 0 201 0;
#X connect 281 0 180 0;
#X connect 282 0 181 0;
#X connect 283 0 182 0;
#X connect 284 0 255 0;
#X connect 285 0 240 0;
#X connect 286 0 327 0;
#X connect 286 0 320 0;
#X connect 286 0 323 0;
#X connect 286 0 344 0;
#X connect 286 0 329 0;
#X connect 286 0 332 0;
#X connect 286 0 335 0;
#X connect 286 0 338 0;
#X connect 287 0 286 0;
#X connect 288 0 162 0;
#X connect 289 0 163 0;
#X connect 290 0 164 0;
#X connect 291 0 165 0;
#X connect 293 0 166 0;
#X connect 294 0 167 0;
#X connect 295 0 168 0;
#X connect 296 0 236 0;
#X connect 297 0 237 0;
#X connect 298 0 238 0;
#X connect 299 0 239 0;
#X connect 300 0 254 0;
#X connect 301 0 176 0;
#X connect 302 0 177 0;
#X connect 303 0 178 0;
#X connect 304 0 169 0;
#X connect 305 0 170 0;
#X connect 306 0 171 0;
#X connect 307 0 172 0;
#X connect 308 0 173 0;
#X connect 309 0 174 0;
#X connect 310 0 175 0;
#X connect 311 0 179 0;
#X connect 312 0 317 0;
#X connect 313 0 317 0;
#X connect 314 0 316 0;
#X connect 316 0 315 0;
#X connect 319 0 344 0;
#X connect 320 0 321 0;
#X connect 320 0 258 0;
#X connect 320 1 321 1;
#X connect 320 1 258 1;
#X connect 322 0 320 0;
#X connect 323 0 324 0;
#X connect 323 0 317 0;
#X connect 323 1 324 1;
#X connect 323 1 317 0;
#X connect 325 0 323 0;
#X connect 326 0 327 0;
#X connect 327 0 328 0;
#X connect 327 0 317 0;
#X connect 327 1 328 1;
#X connect 327 1 317 0;
#X connect 329 0 330 0;
#X connect 329 0 317 0;
#X connect 329 1 330 1;
#X connect 329 1 317 0;
#X connect 331 0 329 0;
#X connect 332 0 333 0;
#X connect 332 0 317 0;
#X connect 332 1 333 1;
#X connect 332 1 317 0;
#X connect 334 0 332 0;
#X connect 335 0 336 0;
#X connect 335 0 317 0;
#X connect 335 1 336 1;
#X connect 335 1 317 0;
#X connect 337 0 335 0;
#X connect 338 0 339 0;
#X connect 338 0 317 0;
#X connect 338 1 339 1;
#X connect 338 1 317 0;
#X connect 340 0 338 0;
#X connect 341 0 327 0;
#X connect 342 0 344 0;
#X connect 343 0 320 0;
#X connect 344 0 318 0;
#X connect 344 0 258 0;
#X connect 344 1 318 1;
#X connect 344 1 258 1;
#X connect 345 0 346 0;
#X connect 345 0 317 0;
#X connect 345 1 346 1;
#X connect 345 1 317 0;
#X connect 347 0 345 0;
#X connect 348 0 323 0;
#X connect 349 0 329 0;
#X connect 350 0 335 0;
#X connect 351 0 338 0;
#X connect 352 0 332 0;
#X connect 353 0 345 0;
#X connect 354 0 317 0;
